<svg width="40" height="40" viewBox="0 0 40 40" fill="none" xmlns="http://www.w3.org/2000/svg">
<g clip-path="url(#clip0_29_2)">
<path d="M38.83 19.331C38.4616 18.9602 38.0234 18.6663 37.5406 18.4661C37.0578 18.2659 36.5401 18.1635 36.0175 18.1647H30.4622L30.465 13.3022C30.4612 11.7522 29.9921 10.2391 29.1185 8.95878C28.2449 7.67843 27.0071 6.68982 25.5653 6.12096C24.5675 5.72784 23.3103 5.41502 22.2394 5.6444C22.4718 4.78695 22.41 3.87631 22.0638 3.05815C21.7176 2.23999 21.107 1.56159 20.3296 1.13148C19.5523 0.701361 18.6531 0.544385 17.776 0.68566C16.8989 0.826935 16.0946 1.2583 15.4916 1.91074C14.8886 2.56319 14.5219 3.39901 14.4501 4.2845C14.3783 5.17 14.6055 6.054 15.0955 6.79508C15.5854 7.53616 16.3098 8.09151 17.1526 8.37227C17.9955 8.65304 18.9082 8.64301 19.7447 8.34377L17.4947 12.1722L12.5094 14.631C12.1812 14.7953 11.8924 15.0286 11.6627 15.3149C11.433 15.6012 11.2678 15.9337 11.1784 16.2897H10.015C9.56922 16.2899 9.12844 16.3836 8.72113 16.5647C8.31381 16.7458 7.94902 17.0104 7.65031 17.3413C7.44145 16.7846 7.10968 16.2821 6.67971 15.8714C6.24975 15.4607 5.73267 15.1523 5.16697 14.9691C4.60128 14.786 4.00156 14.7328 3.41247 14.8136C2.82338 14.8943 2.26009 15.107 1.76457 15.4356C1.26905 15.7643 0.854058 16.2005 0.5505 16.7118C0.246942 17.223 0.062641 17.7962 0.0113217 18.3886C-0.0399975 18.981 0.0429878 19.5773 0.254097 20.1332C0.465207 20.689 0.799001 21.1901 1.23062 21.5991H0.543121C0.398081 21.5991 0.258981 21.6567 0.156422 21.7593C0.0538634 21.8618 -0.00375366 22.0009 -0.00375366 22.146V26.8147C-0.00375366 26.9598 0.0538634 27.0989 0.156422 27.2014C0.258981 27.304 0.398081 27.3616 0.543121 27.3616H2.73062V38.7897C2.73062 38.9348 2.78824 39.0739 2.8908 39.1764C2.99336 39.279 3.13246 39.3366 3.2775 39.3366H7.0275C7.17254 39.3366 7.31164 39.279 7.4142 39.1764C7.51675 39.0739 7.57437 38.9348 7.57437 38.7897V32.375C7.61312 32.3772 7.65218 32.3813 7.69062 32.3813C8.12003 32.3813 8.54023 32.2567 8.90022 32.0226C9.26022 31.7885 9.54456 31.455 9.71875 31.0625L11.3291 27.3631H19.0709L18.2644 28.4282C17.8231 28.8806 17.5756 29.4874 17.5747 30.1194V36.8382C17.5688 37.4767 17.8095 38.093 18.2465 38.5586C18.6835 39.0243 19.2833 39.3035 19.9209 39.3382H19.9947C20.6372 39.3377 21.2533 39.0824 21.7077 38.6281C22.1622 38.1739 22.4178 37.5579 22.4184 36.9153V31.1269L24.1616 29.3997L23.8684 30.9063C23.8204 31.1618 23.8121 31.4232 23.8441 31.6813L24.7409 37.2066C24.8123 37.7938 25.096 38.3346 25.5386 38.7271C25.9811 39.1196 26.5519 39.3367 27.1434 39.3375C27.2416 39.3379 27.3397 39.3323 27.4372 39.321C28.0744 39.2427 28.6545 38.9148 29.0504 38.4094C29.4462 37.9039 29.6254 37.2621 29.5487 36.6247C29.5487 36.6172 29.5466 36.6097 29.5453 36.6019L28.6984 31.4457L29.4937 27.3616H32.4181V38.7897C32.4181 38.9348 32.4757 39.0739 32.5783 39.1764C32.6809 39.279 32.82 39.3366 32.965 39.3366H36.715C36.86 39.3366 36.9991 39.279 37.1017 39.1764C37.2043 39.0739 37.2619 38.9348 37.2619 38.7897V27.3616H39.4494C39.5944 27.3616 39.7335 27.304 39.8361 27.2014C39.9386 27.0989 39.9962 26.9598 39.9962 26.8147V22.146C39.9976 21.623 39.8952 21.1049 39.695 20.6217C39.4948 20.1385 39.2008 19.6998 38.83 19.331ZM18.4228 7.48127C17.8566 7.48134 17.3032 7.31351 16.8324 6.99901C16.3616 6.68451 15.9947 6.23747 15.778 5.71442C15.5613 5.19137 15.5045 4.61581 15.615 4.06052C15.7254 3.50523 15.998 2.99515 16.3983 2.59479C16.7986 2.19443 17.3087 1.92177 17.8639 1.8113C18.4192 1.70082 18.9948 1.75749 19.5179 1.97414C20.0409 2.19079 20.488 2.55768 20.8026 3.02842C21.1171 3.49916 21.285 4.05261 21.285 4.61877C21.2842 5.37765 20.9824 6.10521 20.4458 6.64184C19.9092 7.17848 19.1817 7.48036 18.4228 7.48127ZM12.9944 15.6113L18.125 13.08C18.2206 13.0328 18.3004 12.9586 18.3544 12.8666L21.6044 7.33534C21.7096 7.15757 21.8547 7.00671 22.0282 6.89471C22.2018 6.78271 22.399 6.71263 22.6044 6.69002C22.6524 6.6833 22.7009 6.68037 22.7494 6.68127C24.505 6.68293 26.1883 7.38108 27.4298 8.62249C28.6713 9.86391 29.3695 11.5472 29.3712 13.3028L29.3684 18.1656H29.3219C28.1638 17.1338 26.7106 16.4922 25.1678 16.3316L25.4591 14.4213C25.5774 13.6368 25.4351 12.8351 25.0539 12.1392C24.6728 11.4434 24.0739 10.8918 23.3491 10.5691C23.2264 10.5146 23.0879 10.5071 22.9601 10.5482C22.8322 10.5892 22.724 10.6758 22.6559 10.7916L20.3584 14.6978C20.2272 14.9209 20.0334 15.1006 19.8009 15.2144L14.0978 18.0269C13.9385 18.1054 13.765 18.1512 13.5876 18.1614C13.4102 18.1717 13.2326 18.1463 13.0653 18.0866C12.8979 18.027 12.7443 17.9344 12.6133 17.8143C12.4824 17.6943 12.3769 17.5491 12.3031 17.3875C12.2251 17.2181 12.1884 17.0326 12.1962 16.8463C12.2048 16.5874 12.2837 16.3358 12.4242 16.1182C12.5648 15.9007 12.7619 15.7255 12.9944 15.6113ZM24.3775 14.2553L24.0675 16.2897H20.0937L20.285 16.196C20.7095 15.9873 21.0633 15.6583 21.3022 15.25L23.3278 11.8047C23.7134 12.0751 24.016 12.4477 24.2014 12.8806C24.3869 13.3136 24.4478 13.7896 24.3775 14.2553ZM1.09 18.7353C1.09 18.1692 1.25789 17.6157 1.57244 17.145C1.88699 16.6742 2.33407 16.3073 2.85714 16.0907C3.38021 15.8741 3.95578 15.8174 4.51106 15.9279C5.06634 16.0383 5.57638 16.311 5.9767 16.7114C6.37702 17.1117 6.64962 17.6218 6.76003 18.1771C6.87045 18.7324 6.81372 19.3079 6.59701 19.831C6.38031 20.354 6.01337 20.8011 5.54259 21.1156C5.07181 21.4301 4.51835 21.5979 3.95218 21.5978C3.19328 21.597 2.46571 21.2952 1.92911 20.7585C1.39252 20.2218 1.09074 19.4942 1.09 18.7353ZM6.81468 21.4585V21.5991H6.67406C6.72218 21.5539 6.76916 21.507 6.815 21.4585H6.81468ZM3.26687 26.2678H1.09V22.6928H6.815V26.2666L3.26687 26.2678ZM6.48062 27.4663L5.70625 29.2432C5.55718 29.5769 5.48969 29.9413 5.50936 30.3063C5.52903 30.6713 5.6353 31.0264 5.81937 31.3422C5.98455 31.6175 6.21093 31.851 6.48093 32.0247V38.2435H3.82468V27.3616H6.48093L6.48062 27.4663ZM10.9712 21.5991C10.8262 21.5991 10.6871 21.6567 10.5845 21.7593C10.482 21.8618 10.4244 22.0009 10.4244 22.146V26.7007L8.71875 30.6232C8.61556 30.8608 8.43241 31.0548 8.20111 31.1715C7.9698 31.2881 7.70494 31.3201 7.4525 31.2619C7.2901 31.2215 7.13876 31.1454 7.00951 31.039C6.88026 30.9327 6.77636 30.7989 6.70538 30.6474C6.63439 30.4958 6.59811 30.3304 6.59918 30.163C6.60025 29.9957 6.63864 29.8307 6.71156 29.68L7.86437 27.0331V27.031C7.87886 26.9976 7.88996 26.9628 7.8975 26.9272C7.90515 26.8905 7.90903 26.8531 7.90906 26.8156V19.4897C7.90964 18.9313 8.13173 18.3959 8.5266 18.001C8.92148 17.6061 9.45687 17.384 10.0153 17.3835H11.1547C11.1898 17.5411 11.2415 17.6947 11.3087 17.8416C11.4423 18.1371 11.6343 18.4024 11.8732 18.6217C12.1121 18.8409 12.3929 19.0095 12.6987 19.1172C13.0042 19.2249 13.3281 19.2707 13.6514 19.252C13.9748 19.2333 14.2912 19.1504 14.5822 19.0081L17.8772 17.3831H24.4025C24.4337 17.3831 24.4678 17.3831 24.5275 17.386C26.0952 17.4165 27.5951 18.0307 28.7341 19.1085C28.8354 19.2044 28.9695 19.2579 29.1091 19.2581H36.0181C36.6885 19.2593 37.3376 19.4933 37.8544 19.9203C38.3712 20.3473 38.7234 20.9407 38.8509 21.5988L10.9712 21.5991ZM24.5312 27.4916L21.4853 30.5107C21.4339 30.5615 21.3932 30.622 21.3653 30.6886C21.3375 30.7553 21.3231 30.8268 21.3231 30.8991V36.9147C21.3228 37.0927 21.2868 37.2688 21.2172 37.4326C21.1477 37.5964 21.046 37.7446 20.9182 37.8684C20.7904 37.9923 20.639 38.0892 20.4731 38.1536C20.3072 38.218 20.1301 38.2484 19.9522 38.2431C19.5983 38.2189 19.2673 38.0593 19.0279 37.7974C18.7886 37.5355 18.6593 37.1916 18.6669 36.8369V30.1181C18.6673 29.9428 18.7025 29.7694 18.7704 29.6077C18.8383 29.4461 18.9376 29.2996 19.0625 29.1766C19.0815 29.1579 19.0991 29.1378 19.1153 29.1166L20.4447 27.3613H24.5578L24.5312 27.4916ZM27.3053 38.2341C27.1299 38.2563 26.9519 38.2432 26.7816 38.1954C26.6114 38.1477 26.4525 38.0663 26.3143 37.9561C26.176 37.8459 26.0613 37.7091 25.9768 37.5538C25.8924 37.3985 25.8399 37.2278 25.8225 37.0519L24.9275 31.5313C24.9113 31.3919 24.9164 31.251 24.9425 31.1131L25.5416 28.0313L26.2187 27.3616H28.3803L27.6062 31.3319C27.5937 31.3956 27.5928 31.461 27.6034 31.525L28.4641 36.766C28.5032 37.1138 28.4037 37.463 28.187 37.7379C27.9703 38.0127 27.6539 38.191 27.3066 38.2341H27.3053ZM36.1669 38.2428H33.5106V27.3616H36.1669V38.2428ZM38.9012 26.2678H11.5181V22.6928H38.9025L38.9012 26.2678Z" fill="#228B22"/>
</g>
<defs>
<clipPath id="clip0_29_2">
<rect width="40" height="40" fill="white"/>
</clipPath>
</defs>
</svg>
