<svg width="40" height="40" viewBox="0 0 40 40" fill="none" xmlns="http://www.w3.org/2000/svg">
<path d="M34.4406 28.4952C35.6032 27.7181 36.369 26.4049 36.369 24.9181C36.369 22.5368 34.4045 20.5997 31.9903 20.5997C29.5761 20.5997 27.6116 22.5368 27.6116 24.9181C27.6116 26.3839 28.3574 27.6794 29.4929 28.4603C28.28 28.9936 27.239 29.9178 26.5177 31.1274C25.5926 29.6836 24.2616 28.5639 22.7042 27.9529C24.2213 27.0381 25.2377 25.4036 25.2377 23.5371C25.2377 20.6752 22.8552 18.3468 19.9268 18.3468C16.9984 18.3468 14.6158 20.6752 14.6158 23.5371C14.6158 25.4268 15.6581 27.0794 17.2068 27.9871C15.6877 28.6055 14.39 29.711 13.4826 31.1274C12.761 29.9178 11.7203 28.9936 10.5074 28.4603C11.6429 27.6794 12.3887 26.3839 12.3887 24.9181C12.3887 22.5368 10.4242 20.5997 8.01 20.5997C5.5958 20.5997 3.63129 22.5368 3.63129 24.9181C3.63129 26.4045 4.39709 27.7181 5.55967 28.4952C3.24258 29.5562 1.6129 32.0403 1.6129 34.9281V37.7007C1.6129 38.0568 1.90193 38.3458 2.25806 38.3458H12.0939V39.3549C12.0939 39.711 12.3829 40 12.739 40H27.261C27.6171 40 27.9061 39.711 27.9061 39.3549V38.3458H37.7419C38.0981 38.3458 38.3871 38.0568 38.3871 37.7007V34.9281C38.3871 32.0403 36.7574 29.5562 34.4406 28.4952ZM31.9903 21.89C33.6932 21.89 35.0787 23.2484 35.0787 24.9181C35.0787 26.5878 33.6932 27.9462 31.9903 27.9462C30.2874 27.9462 28.9019 26.5878 28.9019 24.9181C28.9019 23.2484 30.2874 21.89 31.9903 21.89ZM15.9061 23.5371C15.9061 21.3868 17.7097 19.6371 19.9268 19.6371C22.1439 19.6371 23.9474 21.3868 23.9474 23.5371C23.9474 25.6878 22.1439 27.4374 19.9268 27.4374C17.7097 27.4374 15.9061 25.6878 15.9061 23.5371ZM8.00967 21.89C9.71258 21.89 11.0981 23.2484 11.0981 24.9181C11.0981 26.5878 9.71258 27.9462 8.00967 27.9462C6.30677 27.9462 4.92129 26.5878 4.92129 24.9181C4.92129 23.2484 6.30677 21.89 8.00967 21.89ZM12.0939 35.9239V37.0555H2.90322V34.9281C2.90322 31.7897 5.22064 29.2362 8.06871 29.2362C10.0974 29.2362 11.9097 30.5252 12.7526 32.5378C12.33 33.5758 12.0939 34.7207 12.0939 35.9239ZM26.6158 38.7097H13.3842V35.9239C13.3842 31.9558 16.3519 28.7274 20 28.7274C23.6481 28.7274 26.6158 31.9558 26.6158 35.9239V38.7097ZM37.0968 37.0555H27.9061V35.9239C27.9061 34.7207 27.6703 33.5758 27.2477 32.5378C28.0903 30.5252 29.9026 29.2362 31.9316 29.2362C34.7797 29.2362 37.0971 31.7894 37.0971 34.9281L37.0968 37.0555Z" fill="#228B22"/>
<path d="M21.1855 13.3803H18.8145C18.4584 13.3803 18.1694 13.0912 18.1694 12.7351V9.97865H15.5045C15.1484 9.97865 14.8594 9.68962 14.8594 9.33349V6.91091C14.8594 6.55478 15.1484 6.26575 15.5045 6.26575H18.1694V3.5093C18.1694 3.15317 18.4584 2.86414 18.8145 2.86414H21.1855C21.5416 2.86414 21.8307 3.15317 21.8307 3.5093V6.26575H24.4955C24.8516 6.26575 25.1407 6.55478 25.1407 6.91091V9.33349C25.1407 9.68962 24.8516 9.97865 24.4955 9.97865H21.8307V12.7351C21.8307 13.0912 21.5416 13.3803 21.1855 13.3803ZM19.4597 12.0899H20.5403V9.33349C20.5403 8.97736 20.8294 8.68833 21.1855 8.68833H23.8503V7.55607H21.1855C20.8294 7.55607 20.5403 7.26704 20.5403 6.91091V4.15446H19.4597V6.91091C19.4597 7.26704 19.1707 7.55607 18.8145 7.55607H16.1497V8.68833H18.8145C19.1707 8.68833 19.4597 8.97736 19.4597 9.33349V12.0899Z" fill="#228B22"/>
<path d="M20 16.2442C15.5745 16.2442 11.9742 12.6006 11.9742 8.12194C11.9742 3.64323 15.5745 0 20 0C24.4255 0 28.0258 3.64355 28.0258 8.12226C28.0258 12.601 24.4255 16.2442 20 16.2442ZM20 1.29032C16.2858 1.29032 13.2645 4.35516 13.2645 8.12226C13.2645 11.8894 16.2858 14.9539 20 14.9539C23.7142 14.9539 26.7355 11.889 26.7355 8.12194C26.7355 4.35484 23.7142 1.29032 20 1.29032Z" fill="#228B22"/>
</svg>
