<svg width="40" height="40" viewBox="0 0 40 40" fill="none" xmlns="http://www.w3.org/2000/svg">
<path d="M7.26563 8.47657L8.42969 10.8828L11.0703 11.2422C11.5938 11.3125 11.7813 11.9609 11.4219 12.3047L9.49219 14.1563L9.96875 16.7813C10.0625 17.2969 9.51563 17.6875 9.0625 17.4375L6.71094 16.1719L4.35938 17.4375C3.90625 17.6797 3.33594 17.3047 3.46094 16.7422L3.92969 14.1484L2 12.2969C1.625 11.9375 1.82813 11.2969 2.35938 11.2266L4.99219 10.8672L6.15625 8.46094C6.375 8.00001 7.04688 8.00782 7.26563 8.47657ZM7.45313 11.7266L6.71094 10.1797L5.96094 11.7266C5.875 11.9063 5.69531 12.0469 5.48437 12.0781L3.78906 12.3047L5.03125 13.4922C5.17188 13.6328 5.25 13.8359 5.21094 14.0469L4.90625 15.7344L6.40625 14.9297C6.58594 14.8359 6.8125 14.8203 7 14.9297L8.50781 15.7422L8.21094 14.0859C8.16406 13.8828 8.21875 13.6563 8.38281 13.4922L9.625 12.3047L7.94531 12.0781C7.74219 12.0547 7.54688 11.9219 7.45313 11.7266ZM20.5625 2.81251L21.7266 5.21876L24.375 5.57813C24.8984 5.64844 25.0859 6.29688 24.7266 6.64844L22.7969 8.50001L23.2734 11.125C23.3672 11.6406 22.8203 12.0313 22.3672 11.7813L20 10.5156L17.6484 11.7813C17.1953 12.0234 16.625 11.6484 16.75 11.0859L17.2187 8.49219L15.2813 6.64063C14.9063 6.28126 15.1094 5.64063 15.6406 5.57032L18.2734 5.21094L19.4375 2.81251C19.6719 2.33594 20.3359 2.34376 20.5625 2.81251ZM20.75 6.06251L20 4.51563L19.2578 6.06251C19.1719 6.24219 18.9922 6.38282 18.7812 6.41407L17.0781 6.64063L18.3203 7.82813C18.4687 7.96876 18.5391 8.17188 18.5 8.38282L18.1953 10.0703L19.7031 9.26563C19.8828 9.17188 20.1016 9.15626 20.2969 9.26563L21.8047 10.0781L21.5078 8.42188C21.4609 8.21876 21.5156 7.99219 21.6797 7.82813L22.9219 6.64063L21.2422 6.40626C21.0312 6.39063 20.8438 6.25782 20.75 6.06251ZM33.8516 8.47657L35.0156 10.8828L37.6563 11.2422C38.1797 11.3125 38.375 11.9609 38.0078 12.3047L36.0781 14.1563L36.5547 16.7813C36.6484 17.2969 36.1016 17.6875 35.6484 17.4375L33.2969 16.1719L30.9453 17.4375C30.4922 17.6797 29.9219 17.3047 30.0391 16.7422L30.5078 14.1484L28.5781 12.2969C28.2031 11.9375 28.4063 11.2969 28.9375 11.2266L31.5703 10.8672L32.7344 8.46094C32.9609 8.00001 33.6328 8.00782 33.8516 8.47657ZM34.0391 11.7266L33.2969 10.1797L32.5469 11.7266C32.4609 11.9063 32.2891 12.0469 32.0703 12.0781L30.375 12.3047L31.6094 13.4922C31.75 13.6328 31.8281 13.8359 31.7891 14.0469L31.4844 15.7344L32.9922 14.9297C33.1719 14.8359 33.3984 14.8203 33.5859 14.9297L35.1016 15.7422L34.8047 14.0859C34.7578 13.8828 34.8125 13.6563 34.9766 13.4922L36.2109 12.3047L34.5313 12.0781C34.3281 12.0547 34.1328 11.9219 34.0391 11.7266ZM17.1016 24.4297C16.9297 24.1328 17.0313 23.75 17.3281 23.5781C17.625 23.4063 18.0078 23.5078 18.1797 23.8047L19 25.2266L21.9141 22.3125C22.1563 22.0703 22.5547 22.0703 22.7969 22.3125C23.0391 22.5547 23.0391 22.9531 22.7969 23.1953L19.3047 26.6875C19.0156 26.9766 18.5313 26.9141 18.3281 26.5625L17.1016 24.4297ZM20 17.8281C23.3984 17.8281 26.1562 20.5859 26.1562 23.9844C26.1562 27.3828 23.3984 30.1406 20 30.1406C16.6016 30.1406 13.8437 27.3828 13.8437 23.9844C13.8437 20.5859 16.6016 17.8281 20 17.8281ZM23.4688 20.5156C21.5547 18.6016 18.4453 18.6016 16.5313 20.5156C14.6172 22.4297 14.6172 25.5391 16.5313 27.4531C18.4453 29.3672 21.5547 29.3672 23.4688 27.4531C25.3828 25.5313 25.3828 22.4297 23.4688 20.5156ZM20 13.9609C25.5312 13.9609 30.0156 18.4453 30.0156 23.9766C30.0156 26.0703 29.375 28.0156 28.2734 29.625L31.2656 34.8047C31.5547 35.2891 31.1563 35.8359 30.6406 35.7578L27.5781 35.2734L25.9375 37.2891C25.6484 37.6641 25.1094 37.6016 24.8984 37.2266L22.8047 33.6016C20.9766 34.1328 19.0156 34.1328 17.1953 33.6016L15.1016 37.2266C14.8906 37.6016 14.3516 37.6641 14.0625 37.2891L12.4219 35.2734L9.35938 35.7578C8.83594 35.8438 8.46875 35.2734 8.71875 34.8281L11.7266 29.625C9.00781 25.6484 9.51562 20.2969 12.9219 16.8906C14.7266 15.0859 17.2344 13.9609 20 13.9609ZM27.4453 30.6797C26.4922 31.7422 25.3203 32.5938 23.9922 33.1719L25.5234 35.8203L26.8359 34.2109C26.9844 34.0234 27.2109 33.9531 27.4297 33.9922L29.5391 34.3281L27.4453 30.6797ZM16 33.1719C14.6797 32.5938 13.5078 31.7422 12.5547 30.6875L10.4531 34.3281L12.5625 33.9922C12.7734 33.9531 13.0078 34.0313 13.1562 34.2109L14.4687 35.8203L16 33.1719ZM26.2031 17.7813C22.7813 14.3594 17.2266 14.3594 13.8047 17.7813C10.3828 21.2031 10.3828 26.7578 13.8047 30.1797C17.2344 33.6016 22.7813 33.6016 26.2031 30.1797C29.625 26.7578 29.625 21.2031 26.2031 17.7813Z" fill="#228B22"/>
</svg>
